<svg xmlns="http://www.w3.org/2000/svg" width="640" height="420" viewBox="0 0 640 420">
<rect width="100%" height="100%" fill="white"/>
<line x1="70" y1="356" x2="616" y2="356" stroke="#24292f"/>
<line x1="70" y1="28" x2="70" y2="356" stroke="#24292f"/>
<line x1="70.00" y1="28" x2="70.00" y2="356" stroke="#d0d7de" stroke-width="1"/>
<line x1="70" y1="28.00" x2="616" y2="28.00" stroke="#d0d7de" stroke-width="1"/>
<line x1="179.20" y1="28" x2="179.20" y2="356" stroke="#d0d7de" stroke-width="1"/>
<line x1="70" y1="93.60" x2="616" y2="93.60" stroke="#d0d7de" stroke-width="1"/>
<line x1="288.40" y1="28" x2="288.40" y2="356" stroke="#d0d7de" stroke-width="1"/>
<line x1="70" y1="159.20" x2="616" y2="159.20" stroke="#d0d7de" stroke-width="1"/>
<line x1="397.60" y1="28" x2="397.60" y2="356" stroke="#d0d7de" stroke-width="1"/>
<line x1="70" y1="224.80" x2="616" y2="224.80" stroke="#d0d7de" stroke-width="1"/>
<line x1="506.80" y1="28" x2="506.80" y2="356" stroke="#d0d7de" stroke-width="1"/>
<line x1="70" y1="290.40" x2="616" y2="290.40" stroke="#d0d7de" stroke-width="1"/>
<line x1="616.00" y1="28" x2="616.00" y2="356" stroke="#d0d7de" stroke-width="1"/>
<line x1="70" y1="356.00" x2="616" y2="356.00" stroke="#d0d7de" stroke-width="1"/>
<polyline points="70.00,333.38 252.00,327.44 434.00,324.37 616.00,320.97" fill="none" stroke="#1f77b4" stroke-width="2.2"/>
<circle cx="70.00" cy="333.38" r="4" fill="#1f77b4"/>
<circle cx="252.00" cy="327.44" r="4" fill="#1f77b4"/>
<circle cx="434.00" cy="324.37" r="4" fill="#1f77b4"/>
<circle cx="616.00" cy="320.97" r="4" fill="#1f77b4"/>
<polyline points="70.00,63.05 252.00,57.10 434.00,54.02 616.00,50.62" fill="none" stroke="#d62728" stroke-width="2.2"/>
<circle cx="70.00" cy="63.05" r="4" fill="#d62728"/>
<circle cx="252.00" cy="57.10" r="4" fill="#d62728"/>
<circle cx="434.00" cy="54.02" r="4" fill="#d62728"/>
<circle cx="616.00" cy="50.62" r="4" fill="#d62728"/>
<text x="343.00" y="402" font-family="sans-serif" font-size="15" text-anchor="middle">Characteristic h</text>
<text x="18" y="192.00" font-family="sans-serif" font-size="15" text-anchor="middle" transform="rotate(-90 18 192.00)">Residual-density error</text>
<line x1="82" y1="48" x2="104" y2="48" stroke="#1f77b4" stroke-width="2.2"/>
<text x="112" y="53" font-family="sans-serif" font-size="13">eta L2</text>
<line x1="82" y1="68" x2="104" y2="68" stroke="#d62728" stroke-width="2.2"/>
<text x="112" y="73" font-family="sans-serif" font-size="13">qx L2</text>
</svg>
