<svg xmlns="http://www.w3.org/2000/svg" width="760" height="420" viewBox="0 0 760 420">
<rect width="100%" height="100%" fill="white"/>
<text x="70" y="24" font-size="16" font-family="sans-serif" fill="#24292f">C1A-R11 h300 eta Convergence</text>
<line x1="76" y1="362.00" x2="730" y2="362.00" stroke="#d0d7de"/>
<text x="68" y="366.00" text-anchor="end" font-size="12">0.585</text>
<line x1="76" y1="282.00" x2="730" y2="282.00" stroke="#d0d7de"/>
<text x="68" y="286.00" text-anchor="end" font-size="12">0.767</text>
<line x1="76" y1="202.00" x2="730" y2="202.00" stroke="#d0d7de"/>
<text x="68" y="206.00" text-anchor="end" font-size="12">0.948</text>
<line x1="76" y1="122.00" x2="730" y2="122.00" stroke="#d0d7de"/>
<text x="68" y="126.00" text-anchor="end" font-size="12">1.13</text>
<line x1="76" y1="42.00" x2="730" y2="42.00" stroke="#d0d7de"/>
<text x="68" y="46.00" text-anchor="end" font-size="12">1.31</text>
<polyline points="76.00,309.27 86.90,308.12 97.80,309.19 108.70,311.77 119.60,315.59 130.50,313.69 141.40,314.43 152.30,317.11 163.20,321.12 174.10,326.09 185.00,331.68 195.90,335.06 206.80,335.86 217.70,337.29 228.60,338.66 239.50,338.85 250.40,339.93 261.30,337.39 272.20,325.58 283.10,314.21 294.00,303.36 304.90,293.10 315.80,278.81 326.70,263.71 337.60,250.43 348.50,239.03 359.40,229.57 370.30,221.96 381.20,215.97 392.10,210.91 403.00,207.05 413.90,205.00 424.80,204.38 435.70,204.76 446.60,205.84 457.50,207.36 468.40,202.31 479.30,198.48 490.20,195.97 501.10,194.65 512.00,194.56 522.90,195.30 533.80,196.40 544.70,197.62 555.60,198.85 566.50,200.13 577.40,201.52 588.30,197.49 599.20,194.27 610.10,191.88 621.00,190.15 631.90,188.37 642.80,186.75 653.70,185.38 664.60,184.09 675.50,181.70 686.40,173.61 697.30,166.46 708.20,160.22 719.10,154.77 730.00,150.15" fill="none" stroke="#f58518" stroke-width="2.2"/>
<text x="650" y="54" font-size="12" fill="#f58518">h500</text>
<polyline points="76.00,293.04 86.90,295.60 97.80,299.77 108.70,299.24 119.60,300.07 130.50,302.57 141.40,303.61 152.30,303.18 163.20,305.37 174.10,309.67 185.00,315.20 195.90,318.02 206.80,318.72 217.70,320.46 228.60,321.71 239.50,322.63 250.40,324.85 261.30,328.09 272.20,315.30 283.10,297.83 294.00,282.62 304.90,269.68 315.80,258.85 326.70,249.91 337.60,242.08 348.50,228.12 359.40,216.79 370.30,208.00 381.20,201.61 392.10,197.09 403.00,194.00 413.90,191.90 424.80,190.92 435.70,190.59 446.60,191.00 457.50,187.83 468.40,183.96 479.30,182.06 490.20,181.77 501.10,182.56 512.00,184.34 522.90,186.57 533.80,189.05 544.70,191.72 555.60,194.62 566.50,192.91 577.40,191.86 588.30,191.58 599.20,192.71 610.10,194.69 621.00,196.80 631.90,192.74 642.80,188.36 653.70,185.00 664.60,181.99 675.50,179.86 686.40,178.42 697.30,177.20 708.20,175.84 719.10,174.08 730.00,171.46" fill="none" stroke="#9467bd" stroke-width="2.2"/>
<text x="650" y="90" font-size="12" fill="#9467bd">h400</text>
<polyline points="76.00,257.59 86.90,257.04 97.80,254.92 108.70,251.55 119.60,247.70 130.50,244.55 141.40,242.35 152.30,241.48 163.20,241.83 174.10,242.70 185.00,243.64 195.90,244.30 206.80,244.60 217.70,244.58 228.60,244.23 239.50,243.80 250.40,243.33 261.30,242.70 272.20,241.56 283.10,240.07 294.00,227.05 304.90,204.28 315.80,186.05 326.70,172.51 337.60,162.76 348.50,156.09 359.40,151.45 370.30,148.20 381.20,146.26 392.10,146.45 403.00,148.99 413.90,148.71 424.80,147.42 435.70,146.91 446.60,147.26 457.50,145.78 468.40,145.39 479.30,145.65 490.20,139.06 501.10,131.23 512.00,123.65 522.90,116.25 533.80,109.09 544.70,102.27 555.60,95.88 566.50,89.88 577.40,84.34 588.30,79.37 599.20,75.03 610.10,71.29 621.00,68.32 631.90,66.37 642.80,65.61 653.70,66.57 664.60,69.58 675.50,74.14 686.40,80.36 697.30,84.19 708.20,76.84 719.10,70.25 730.00,64.07" fill="none" stroke="#555555" stroke-width="2.2"/>
<text x="650" y="126" font-size="12" fill="#555555">h300</text>
<line x1="76" y1="362" x2="730" y2="362" stroke="#24292f"/>
<line x1="76" y1="42" x2="76" y2="362" stroke="#24292f"/>
<text x="380.0" y="412" text-anchor="middle" font-size="13">time since event start (s)</text>
<text x="18" y="210.0" transform="rotate(-90 18 210.0)" text-anchor="middle" font-size="13">eta perturbation (m)</text>
</svg>
