<?xml version="1.0" encoding="utf-8" standalone="no"?>
<!DOCTYPE svg PUBLIC "-//W3C//DTD SVG 1.1//EN"
  "http://www.w3.org/Graphics/SVG/1.1/DTD/svg11.dtd">
<svg xmlns:xlink="http://www.w3.org/1999/xlink" width="598.79952pt" height="281.99952pt" viewBox="0 0 598.79952 281.99952" xmlns="http://www.w3.org/2000/svg" version="1.1">
 <metadata>
  <rdf:RDF xmlns:dc="http://purl.org/dc/elements/1.1/" xmlns:cc="http://creativecommons.org/ns#" xmlns:rdf="http://www.w3.org/1999/02/22-rdf-syntax-ns#">
   <cc:Work>
    <dc:type rdf:resource="http://purl.org/dc/dcmitype/StillImage"/>
    <dc:date>2026-08-11T21:48:09.247010</dc:date>
    <dc:format>image/svg+xml</dc:format>
    <dc:creator>
     <cc:Agent>
      <dc:title>Matplotlib v3.11.1, https://matplotlib.org/</dc:title>
     </cc:Agent>
    </dc:creator>
   </cc:Work>
  </rdf:RDF>
 </metadata>
 <defs>
  <style type="text/css">*{stroke-linejoin: round; stroke-linecap: butt}</style>
 </defs>
 <g id="figure_1">
  <g id="patch_1">
   <path d="M 0 281.99952
L 598.79952 281.99952
L 598.79952 0
L 0 0
z
" style="fill: #ffffff"/>
  </g>
  <g id="axes_1">
   <g id="patch_2">
    <path d="M 60.839023 243.7987
L 588.577333 243.7987
L 588.577333 23.077969
L 60.839023 23.077969
z
" style="fill: #ffffff"/>
   </g>
   <g id="FillBetweenPolyCollection_1">
    <defs>
     <path id="mdefda26422" d="M 60.839023 -248.888791
L 60.839023 -48.233581
L 64.265354 -49.257999
L 67.691685 -49.19538
L 71.118015 -50.023285
L 74.544346 -51.01431
L 77.970676 -51.962364
L 81.397007 -52.075891
L 84.823337 -53.080503
L 88.249668 -55.47206
L 91.675999 -55.508412
L 95.102329 -56.685305
L 98.52866 -56.858443
L 101.95499 -58.255121
L 105.381321 -59.643621
L 108.807651 -62.227392
L 112.233982 -62.565124
L 115.660313 -63.04507
L 119.086643 -64.034259
L 122.512974 -65.64126
L 125.939304 -67.26967
L 129.365635 -67.676013
L 132.791966 -70.357224
L 136.218296 -70.62607
L 139.644627 -72.248881
L 143.070957 -73.983428
L 146.497288 -75.420469
L 149.923618 -75.667369
L 153.349949 -78.731751
L 156.77628 -79.506854
L 160.20261 -81.419815
L 163.628941 -82.581285
L 167.055271 -83.918361
L 170.481602 -85.672729
L 173.907932 -87.499355
L 177.334263 -89.343987
L 180.760594 -91.089953
L 184.186924 -91.183257
L 187.613255 -92.988187
L 191.039585 -94.979138
L 194.465916 -96.870701
L 197.892246 -100.394118
L 201.318577 -99.962889
L 204.744908 -100.915501
L 208.171238 -102.921049
L 211.597569 -104.96246
L 215.023899 -105.77134
L 218.45023 -108.634943
L 221.87656 -108.979008
L 225.302891 -111.001049
L 228.729222 -112.949701
L 232.155552 -114.795666
L 235.581883 -114.848752
L 239.008213 -116.665538
L 242.434544 -118.368269
L 245.860874 -120.015251
L 249.287205 -121.126253
L 252.713536 -121.966938
L 256.139866 -122.780018
L 259.566197 -124.158681
L 262.992527 -127.002677
L 266.418858 -126.440776
L 269.845189 -126.48679
L 273.271519 -127.739582
L 276.69785 -128.970832
L 280.12418 -130.333412
L 283.550511 -132.843949
L 286.976841 -132.403225
L 290.403172 -132.815293
L 293.829503 -133.915808
L 297.255833 -135.020686
L 300.682164 -135.51161
L 304.108494 -135.867908
L 307.534825 -136.743889
L 310.961155 -137.480663
L 314.387486 -138.308577
L 317.813817 -139.034465
L 321.240147 -139.112166
L 324.666478 -139.950987
L 328.092808 -142.528235
L 331.519139 -142.058055
L 334.945469 -143.087043
L 338.3718 -143.27299
L 341.798131 -144.486381
L 345.224461 -145.912138
L 348.650792 -147.321318
L 352.077122 -148.922727
L 355.503453 -149.456168
L 358.929783 -150.910885
L 362.356114 -152.664023
L 365.782445 -154.643668
L 369.208775 -155.007998
L 372.635106 -158.243223
L 376.061436 -158.680766
L 379.487767 -161.088037
L 382.914098 -163.371371
L 386.340428 -165.362539
L 389.766759 -165.873747
L 393.193089 -170.534967
L 396.61942 -171.15639
L 400.04575 -173.635237
L 403.472081 -174.783019
L 406.898412 -176.234845
L 410.324742 -178.205912
L 413.751073 -179.959328
L 417.177403 -181.571966
L 420.603734 -182.956402
L 424.030064 -183.054086
L 427.456395 -184.479196
L 430.882726 -185.921848
L 434.309056 -187.467354
L 437.735387 -188.974593
L 441.161717 -189.756315
L 444.588048 -190.608179
L 448.014378 -192.262757
L 451.440709 -193.946555
L 454.86704 -194.537346
L 458.29337 -197.622343
L 461.719701 -197.284685
L 465.146031 -199.312505
L 468.572362 -201.152639
L 471.998692 -202.996607
L 475.425023 -203.035153
L 478.851354 -205.038228
L 482.277684 -206.716306
L 485.704015 -208.255166
L 489.130345 -209.341497
L 492.556676 -210.253253
L 495.983006 -211.231261
L 499.409337 -212.668592
L 502.835668 -214.066954
L 506.261998 -215.328234
L 509.688329 -215.348683
L 513.114659 -216.575344
L 516.54099 -217.694997
L 519.967321 -218.734612
L 523.393651 -219.793415
L 526.819982 -220.288384
L 530.246312 -220.5986
L 533.672643 -221.479661
L 537.098973 -222.333822
L 540.525304 -222.798784
L 543.951635 -223.209023
L 547.377965 -224.46349
L 550.804296 -225.89152
L 554.230626 -227.644656
L 557.656957 -229.703689
L 561.083287 -229.86865
L 564.509618 -232.028644
L 567.935949 -234.734567
L 571.362279 -237.045514
L 574.78861 -239.038178
L 578.21494 -240.911135
L 581.641271 -242.498568
L 585.067601 -244.637447
L 588.151035 -244.715671
L 588.151035 -248.888791
L 588.151035 -248.888791
L 585.067601 -248.888791
L 581.641271 -248.888791
L 578.21494 -248.888791
L 574.78861 -248.888791
L 571.362279 -248.888791
L 567.935949 -248.888791
L 564.509618 -248.888791
L 561.083287 -248.888791
L 557.656957 -248.888791
L 554.230626 -248.888791
L 550.804296 -248.888791
L 547.377965 -248.888791
L 543.951635 -248.888791
L 540.525304 -248.888791
L 537.098973 -248.888791
L 533.672643 -248.888791
L 530.246312 -248.888791
L 526.819982 -248.888791
L 523.393651 -248.888791
L 519.967321 -248.888791
L 516.54099 -248.888791
L 513.114659 -248.888791
L 509.688329 -248.888791
L 506.261998 -248.888791
L 502.835668 -248.888791
L 499.409337 -248.888791
L 495.983006 -248.888791
L 492.556676 -248.888791
L 489.130345 -248.888791
L 485.704015 -248.888791
L 482.277684 -248.888791
L 478.851354 -248.888791
L 475.425023 -248.888791
L 471.998692 -248.888791
L 468.572362 -248.888791
L 465.146031 -248.888791
L 461.719701 -248.888791
L 458.29337 -248.888791
L 454.86704 -248.888791
L 451.440709 -248.888791
L 448.014378 -248.888791
L 444.588048 -248.888791
L 441.161717 -248.888791
L 437.735387 -248.888791
L 434.309056 -248.888791
L 430.882726 -248.888791
L 427.456395 -248.888791
L 424.030064 -248.888791
L 420.603734 -248.888791
L 417.177403 -248.888791
L 413.751073 -248.888791
L 410.324742 -248.888791
L 406.898412 -248.888791
L 403.472081 -248.888791
L 400.04575 -248.888791
L 396.61942 -248.888791
L 393.193089 -248.888791
L 389.766759 -248.888791
L 386.340428 -248.888791
L 382.914098 -248.888791
L 379.487767 -248.888791
L 376.061436 -248.888791
L 372.635106 -248.888791
L 369.208775 -248.888791
L 365.782445 -248.888791
L 362.356114 -248.888791
L 358.929783 -248.888791
L 355.503453 -248.888791
L 352.077122 -248.888791
L 348.650792 -248.888791
L 345.224461 -248.888791
L 341.798131 -248.888791
L 338.3718 -248.888791
L 334.945469 -248.888791
L 331.519139 -248.888791
L 328.092808 -248.888791
L 324.666478 -248.888791
L 321.240147 -248.888791
L 317.813817 -248.888791
L 314.387486 -248.888791
L 310.961155 -248.888791
L 307.534825 -248.888791
L 304.108494 -248.888791
L 300.682164 -248.888791
L 297.255833 -248.888791
L 293.829503 -248.888791
L 290.403172 -248.888791
L 286.976841 -248.888791
L 283.550511 -248.888791
L 280.12418 -248.888791
L 276.69785 -248.888791
L 273.271519 -248.888791
L 269.845189 -248.888791
L 266.418858 -248.888791
L 262.992527 -248.888791
L 259.566197 -248.888791
L 256.139866 -248.888791
L 252.713536 -248.888791
L 249.287205 -248.888791
L 245.860874 -248.888791
L 242.434544 -248.888791
L 239.008213 -248.888791
L 235.581883 -248.888791
L 232.155552 -248.888791
L 228.729222 -248.888791
L 225.302891 -248.888791
L 221.87656 -248.888791
L 218.45023 -248.888791
L 215.023899 -248.888791
L 211.597569 -248.888791
L 208.171238 -248.888791
L 204.744908 -248.888791
L 201.318577 -248.888791
L 197.892246 -248.888791
L 194.465916 -248.888791
L 191.039585 -248.888791
L 187.613255 -248.888791
L 184.186924 -248.888791
L 180.760594 -248.888791
L 177.334263 -248.888791
L 173.907932 -248.888791
L 170.481602 -248.888791
L 167.055271 -248.888791
L 163.628941 -248.888791
L 160.20261 -248.888791
L 156.77628 -248.888791
L 153.349949 -248.888791
L 149.923618 -248.888791
L 146.497288 -248.888791
L 143.070957 -248.888791
L 139.644627 -248.888791
L 136.218296 -248.888791
L 132.791966 -248.888791
L 129.365635 -248.888791
L 125.939304 -248.888791
L 122.512974 -248.888791
L 119.086643 -248.888791
L 115.660313 -248.888791
L 112.233982 -248.888791
L 108.807651 -248.888791
L 105.381321 -248.888791
L 101.95499 -248.888791
L 98.52866 -248.888791
L 95.102329 -248.888791
L 91.675999 -248.888791
L 88.249668 -248.888791
L 84.823337 -248.888791
L 81.397007 -248.888791
L 77.970676 -248.888791
L 74.544346 -248.888791
L 71.118015 -248.888791
L 67.691685 -248.888791
L 64.265354 -248.888791
L 60.839023 -248.888791
z
" style="stroke: #8ecae6; stroke-opacity: 0.52"/>
    </defs>
    <g clip-path="url(#p13af600def)">
     <use xlink:href="#mdefda26422" x="0" y="281.99952" style="fill: #8ecae6; fill-opacity: 0.52; stroke: #8ecae6; stroke-opacity: 0.52"/>
    </g>
   </g>
   <g id="matplotlib.axis_1">
    <g id="xtick_1">
     <g id="line2d_1">
      <path d="M 588.577333 243.7987
L 588.577333 23.077969
" clip-path="url(#p13af600def)" style="fill: none; stroke: #b0b0b0; stroke-opacity: 0.22; stroke-width: 0.45; stroke-linecap: square"/>
     </g>
     <g id="line2d_2">
      <defs>
       <path id="mb1429aedd8" d="M 0 0
L 0 3.5
" style="stroke: #000000; stroke-width: 0.8"/>
      </defs>
      <g>
       <use xlink:href="#mb1429aedd8" x="588.577333" y="243.7987" style="stroke: #000000; stroke-width: 0.8"/>
      </g>
     </g>
     <g id="text_1">
      <text style="font-size: 9.5px; font-family: 'DejaVu Sans'; text-anchor: middle" x="588.577333" y="258.016473" transform="rotate(-0 588.577333 258.016473)">0</text>
     </g>
    </g>
    <g id="xtick_2">
     <g id="line2d_3">
      <path d="M 502.919068 243.7987
L 502.919068 23.077969
" clip-path="url(#p13af600def)" style="fill: none; stroke: #b0b0b0; stroke-opacity: 0.22; stroke-width: 0.45; stroke-linecap: square"/>
     </g>
     <g id="line2d_4">
      <g>
       <use xlink:href="#mb1429aedd8" x="502.919068" y="243.7987" style="stroke: #000000; stroke-width: 0.8"/>
      </g>
     </g>
     <g id="text_2">
      <text style="font-size: 9.5px; font-family: 'DejaVu Sans'; text-anchor: middle" x="502.919068" y="258.016473" transform="rotate(-0 502.919068 258.016473)">20</text>
     </g>
    </g>
    <g id="xtick_3">
     <g id="line2d_5">
      <path d="M 417.260804 243.7987
L 417.260804 23.077969
" clip-path="url(#p13af600def)" style="fill: none; stroke: #b0b0b0; stroke-opacity: 0.22; stroke-width: 0.45; stroke-linecap: square"/>
     </g>
     <g id="line2d_6">
      <g>
       <use xlink:href="#mb1429aedd8" x="417.260804" y="243.7987" style="stroke: #000000; stroke-width: 0.8"/>
      </g>
     </g>
     <g id="text_3">
      <text style="font-size: 9.5px; font-family: 'DejaVu Sans'; text-anchor: middle" x="417.260804" y="258.016473" transform="rotate(-0 417.260804 258.016473)">40</text>
     </g>
    </g>
    <g id="xtick_4">
     <g id="line2d_7">
      <path d="M 331.602539 243.7987
L 331.602539 23.077969
" clip-path="url(#p13af600def)" style="fill: none; stroke: #b0b0b0; stroke-opacity: 0.22; stroke-width: 0.45; stroke-linecap: square"/>
     </g>
     <g id="line2d_8">
      <g>
       <use xlink:href="#mb1429aedd8" x="331.602539" y="243.7987" style="stroke: #000000; stroke-width: 0.8"/>
      </g>
     </g>
     <g id="text_4">
      <text style="font-size: 9.5px; font-family: 'DejaVu Sans'; text-anchor: middle" x="331.602539" y="258.016473" transform="rotate(-0 331.602539 258.016473)">60</text>
     </g>
    </g>
    <g id="xtick_5">
     <g id="line2d_9">
      <path d="M 245.944275 243.7987
L 245.944275 23.077969
" clip-path="url(#p13af600def)" style="fill: none; stroke: #b0b0b0; stroke-opacity: 0.22; stroke-width: 0.45; stroke-linecap: square"/>
     </g>
     <g id="line2d_10">
      <g>
       <use xlink:href="#mb1429aedd8" x="245.944275" y="243.7987" style="stroke: #000000; stroke-width: 0.8"/>
      </g>
     </g>
     <g id="text_5">
      <text style="font-size: 9.5px; font-family: 'DejaVu Sans'; text-anchor: middle" x="245.944275" y="258.016473" transform="rotate(-0 245.944275 258.016473)">80</text>
     </g>
    </g>
    <g id="xtick_6">
     <g id="line2d_11">
      <path d="M 160.286011 243.7987
L 160.286011 23.077969
" clip-path="url(#p13af600def)" style="fill: none; stroke: #b0b0b0; stroke-opacity: 0.22; stroke-width: 0.45; stroke-linecap: square"/>
     </g>
     <g id="line2d_12">
      <g>
       <use xlink:href="#mb1429aedd8" x="160.286011" y="243.7987" style="stroke: #000000; stroke-width: 0.8"/>
      </g>
     </g>
     <g id="text_6">
      <text style="font-size: 9.5px; font-family: 'DejaVu Sans'; text-anchor: middle" x="160.286011" y="258.016473" transform="rotate(-0 160.286011 258.016473)">100</text>
     </g>
    </g>
    <g id="xtick_7">
     <g id="line2d_13">
      <path d="M 74.627746 243.7987
L 74.627746 23.077969
" clip-path="url(#p13af600def)" style="fill: none; stroke: #b0b0b0; stroke-opacity: 0.22; stroke-width: 0.45; stroke-linecap: square"/>
     </g>
     <g id="line2d_14">
      <g>
       <use xlink:href="#mb1429aedd8" x="74.627746" y="243.7987" style="stroke: #000000; stroke-width: 0.8"/>
      </g>
     </g>
     <g id="text_7">
      <text style="font-size: 9.5px; font-family: 'DejaVu Sans'; text-anchor: middle" x="74.627746" y="258.016473" transform="rotate(-0 74.627746 258.016473)">120</text>
     </g>
    </g>
    <g id="text_8">
     <text style="font-size: 10.5px; font-family: 'DejaVu Sans'; text-anchor: middle" x="324.708178" y="272.277059" transform="rotate(-0 324.708178 272.277059)">Distance to selected nearshore interface, km</text>
    </g>
   </g>
   <g id="matplotlib.axis_2">
    <g id="ytick_1">
     <g id="line2d_15">
      <path d="M 60.839023 219.350812
L 588.577333 219.350812
" clip-path="url(#p13af600def)" style="fill: none; stroke: #b0b0b0; stroke-opacity: 0.22; stroke-width: 0.45; stroke-linecap: square"/>
     </g>
     <g id="line2d_16">
      <defs>
       <path id="m470943c192" d="M 0 0
L -3.5 0
" style="stroke: #000000; stroke-width: 0.8"/>
      </defs>
      <g>
       <use xlink:href="#m470943c192" x="60.839023" y="219.350812" style="stroke: #000000; stroke-width: 0.8"/>
      </g>
     </g>
     <g id="text_9">
      <text style="font-size: 9.5px; font-family: 'DejaVu Sans'; text-anchor: end" x="53.839023" y="222.959699" transform="rotate(-0 53.839023 222.959699)">−1000</text>
     </g>
    </g>
    <g id="ytick_2">
     <g id="line2d_17">
      <path d="M 60.839023 182.102796
L 588.577333 182.102796
" clip-path="url(#p13af600def)" style="fill: none; stroke: #b0b0b0; stroke-opacity: 0.22; stroke-width: 0.45; stroke-linecap: square"/>
     </g>
     <g id="line2d_18">
      <g>
       <use xlink:href="#m470943c192" x="60.839023" y="182.102796" style="stroke: #000000; stroke-width: 0.8"/>
      </g>
     </g>
     <g id="text_10">
      <text style="font-size: 9.5px; font-family: 'DejaVu Sans'; text-anchor: end" x="53.839023" y="185.711682" transform="rotate(-0 53.839023 185.711682)">−800</text>
     </g>
    </g>
    <g id="ytick_3">
     <g id="line2d_19">
      <path d="M 60.839023 144.854779
L 588.577333 144.854779
" clip-path="url(#p13af600def)" style="fill: none; stroke: #b0b0b0; stroke-opacity: 0.22; stroke-width: 0.45; stroke-linecap: square"/>
     </g>
     <g id="line2d_20">
      <g>
       <use xlink:href="#m470943c192" x="60.839023" y="144.854779" style="stroke: #000000; stroke-width: 0.8"/>
      </g>
     </g>
     <g id="text_11">
      <text style="font-size: 9.5px; font-family: 'DejaVu Sans'; text-anchor: end" x="53.839023" y="148.463666" transform="rotate(-0 53.839023 148.463666)">−600</text>
     </g>
    </g>
    <g id="ytick_4">
     <g id="line2d_21">
      <path d="M 60.839023 107.606762
L 588.577333 107.606762
" clip-path="url(#p13af600def)" style="fill: none; stroke: #b0b0b0; stroke-opacity: 0.22; stroke-width: 0.45; stroke-linecap: square"/>
     </g>
     <g id="line2d_22">
      <g>
       <use xlink:href="#m470943c192" x="60.839023" y="107.606762" style="stroke: #000000; stroke-width: 0.8"/>
      </g>
     </g>
     <g id="text_12">
      <text style="font-size: 9.5px; font-family: 'DejaVu Sans'; text-anchor: end" x="53.839023" y="111.215649" transform="rotate(-0 53.839023 111.215649)">−400</text>
     </g>
    </g>
    <g id="ytick_5">
     <g id="line2d_23">
      <path d="M 60.839023 70.358746
L 588.577333 70.358746
" clip-path="url(#p13af600def)" style="fill: none; stroke: #b0b0b0; stroke-opacity: 0.22; stroke-width: 0.45; stroke-linecap: square"/>
     </g>
     <g id="line2d_24">
      <g>
       <use xlink:href="#m470943c192" x="60.839023" y="70.358746" style="stroke: #000000; stroke-width: 0.8"/>
      </g>
     </g>
     <g id="text_13">
      <text style="font-size: 9.5px; font-family: 'DejaVu Sans'; text-anchor: end" x="53.839023" y="73.967633" transform="rotate(-0 53.839023 73.967633)">−200</text>
     </g>
    </g>
    <g id="ytick_6">
     <g id="line2d_25">
      <path d="M 60.839023 33.110729
L 588.577333 33.110729
" clip-path="url(#p13af600def)" style="fill: none; stroke: #b0b0b0; stroke-opacity: 0.22; stroke-width: 0.45; stroke-linecap: square"/>
     </g>
     <g id="line2d_26">
      <g>
       <use xlink:href="#m470943c192" x="60.839023" y="33.110729" style="stroke: #000000; stroke-width: 0.8"/>
      </g>
     </g>
     <g id="text_14">
      <text style="font-size: 9.5px; font-family: 'DejaVu Sans'; text-anchor: end" x="53.839023" y="36.719616" transform="rotate(-0 53.839023 36.719616)">0</text>
     </g>
    </g>
    <g id="text_15">
     <text style="font-size: 10.5px; font-family: 'DejaVu Sans'; text-anchor: middle" x="15.178359" y="133.438334" transform="rotate(-90 15.178359 133.438334)">Bed elevation, m</text>
    </g>
   </g>
   <g id="line2d_27">
    <path d="M 60.839023 233.765939
L 64.265354 232.741521
L 67.691685 232.80414
L 71.118015 231.976235
L 77.970676 230.037156
L 81.397007 229.923629
L 84.823337 228.919017
L 88.249668 226.52746
L 91.675999 226.491108
L 95.102329 225.314215
L 98.52866 225.141077
L 105.381321 222.355899
L 108.807651 219.772128
L 112.233982 219.434396
L 115.660313 218.95445
L 119.086643 217.965261
L 125.939304 214.72985
L 129.365635 214.323507
L 132.791966 211.642296
L 136.218296 211.37345
L 146.497288 206.579051
L 149.923618 206.332151
L 153.349949 203.267769
L 156.77628 202.492666
L 160.20261 200.579705
L 163.628941 199.418235
L 167.055271 198.081159
L 173.907932 194.500165
L 180.760594 190.909567
L 184.186924 190.816263
L 187.613255 189.011333
L 194.465916 185.128819
L 197.892246 181.605402
L 201.318577 182.036631
L 204.744908 181.084019
L 211.597569 177.03706
L 215.023899 176.22818
L 218.45023 173.364577
L 221.87656 173.020512
L 228.729222 169.049819
L 232.155552 167.203854
L 235.581883 167.150768
L 242.434544 163.631251
L 245.860874 161.984269
L 249.287205 160.873267
L 256.139866 159.219502
L 259.566197 157.840839
L 262.992527 154.996843
L 266.418858 155.558744
L 269.845189 155.51273
L 280.12418 151.666108
L 283.550511 149.155571
L 286.976841 149.596295
L 290.403172 149.184227
L 297.255833 146.978834
L 300.682164 146.48791
L 304.108494 146.131612
L 307.534825 145.255631
L 317.813817 142.965055
L 321.240147 142.887354
L 324.666478 142.048533
L 328.092808 139.471285
L 331.519139 139.941465
L 334.945469 138.912477
L 338.3718 138.72653
L 341.798131 137.513139
L 348.650792 134.678202
L 352.077122 133.076793
L 355.503453 132.543352
L 358.929783 131.088635
L 362.356114 129.335497
L 365.782445 127.355852
L 369.208775 126.991522
L 372.635106 123.756297
L 376.061436 123.318754
L 382.914098 118.628149
L 386.340428 116.636981
L 389.766759 116.125773
L 393.193089 111.464553
L 396.61942 110.84313
L 400.04575 108.364283
L 403.472081 107.216501
L 406.898412 105.764675
L 410.324742 103.793608
L 413.751073 102.040192
L 417.177403 100.427554
L 420.603734 99.043118
L 424.030064 98.945434
L 430.882726 96.077672
L 437.735387 93.024927
L 444.588048 91.391341
L 451.440709 88.052965
L 454.86704 87.462174
L 458.29337 84.377177
L 461.719701 84.714835
L 465.146031 82.687015
L 471.998692 79.002913
L 475.425023 78.964367
L 478.851354 76.961292
L 482.277684 75.283214
L 485.704015 73.744354
L 489.130345 72.658023
L 495.983006 70.768259
L 502.835668 67.932566
L 506.261998 66.671286
L 509.688329 66.650837
L 516.54099 64.304523
L 523.393651 62.206105
L 526.819982 61.711136
L 530.246312 61.40092
L 537.098973 59.665698
L 543.951635 58.790497
L 547.377965 57.53603
L 550.804296 56.108
L 554.230626 54.354864
L 557.656957 52.295831
L 561.083287 52.13087
L 564.509618 49.970876
L 567.935949 47.264953
L 571.362279 44.954006
L 578.21494 41.088385
L 581.641271 39.500952
L 585.067601 37.362073
L 588.151035 37.283849
L 588.151035 37.283849
" clip-path="url(#p13af600def)" style="fill: none; stroke: #19324a; stroke-width: 1.8; stroke-linecap: square"/>
   </g>
   <g id="line2d_28">
    <path d="M 60.839023 33.110729
L 588.577333 33.110729
" clip-path="url(#p13af600def)" style="fill: none; stroke: #24292f; stroke-width: 0.85; stroke-linecap: square"/>
   </g>
   <g id="patch_3">
    <path d="M 60.839023 243.7987
L 60.839023 23.077969
" style="fill: none; stroke: #000000; stroke-width: 0.85; stroke-linejoin: miter; stroke-linecap: square"/>
   </g>
   <g id="patch_4">
    <path d="M 588.577333 243.7987
L 588.577333 23.077969
" style="fill: none; stroke: #000000; stroke-width: 0.85; stroke-linejoin: miter; stroke-linecap: square"/>
   </g>
   <g id="patch_5">
    <path d="M 60.839023 243.7987
L 588.577333 243.7987
" style="fill: none; stroke: #000000; stroke-width: 0.85; stroke-linejoin: miter; stroke-linecap: square"/>
   </g>
   <g id="patch_6">
    <path d="M 60.839023 23.077969
L 588.577333 23.077969
" style="fill: none; stroke: #000000; stroke-width: 0.85; stroke-linejoin: miter; stroke-linecap: square"/>
   </g>
   <g id="text_16">
    <text style="font-size: 13px; font-family: 'DejaVu Sans'; text-anchor: middle" x="324.708178" y="17.077969" transform="rotate(-0 324.708178 17.077969)">Longitudinal bathymetry sampled from the R10 h400 mesh</text>
   </g>
  </g>
 </g>
 <defs>
  <clipPath id="p13af600def">
   <rect x="60.839023" y="23.077969" width="527.738309" height="220.720731"/>
  </clipPath>
 </defs>
</svg>
